<svg xmlns="http://www.w3.org/2000/svg" xml:space="preserve" width="800" height="800" data-version="2">
    <circle r="50" fill="#F6F5EA" transform="matrix(4.81 0 0 4.81 398.79 504.37)"/>
    <rect width="90.42" height="150.58" x="-45.21" y="-75.29" fill="none" rx="0" ry="0" transform="matrix(.826 -1.1796 1.1796 .826 126.918 309.916)"/>
    <path fill="#F6F5EA" d="m157.818 383.694-8.838 12.622q-.768 1.097-2.014 2.123-1.238 1.015-2.736-.034-.637-.446-1.089-1.132-.472-.682-.86-1.306-10.137-17.434-20.348-34.763-10.211-17.328-20.716-34.564-8.66-14.168-17.407-28.291-8.758-14.131-17.088-28.42-.299-.579.081-1.121.388-.555 1.025-.46 16.285 2.929 32.56 6.325 16.262 3.388 32.539 6.68 19.789 3.977 39.564 7.645 19.768 3.68 39.626 7.23.72.152 1.522.362.79.202 1.427.648 1.499 1.05.969 2.56-.53 1.51-1.298 2.606l-11.168 15.95q-1.38 1.97-4.068 1.616-1.7-.259-3.515-.704-1.804-.436-3.455-.766-5.166-1.033-10.39-2.283-5.237-1.258-10.461-2.208-.79-.202-1.237.435l-27.348 39.058q-.446.637.014 1.31 2.63 4.655 5.546 9.228 2.904 4.565 5.666 9.207.883 1.426 1.877 3.019 1.003 1.58 1.77 3.172 1.18 2.357-.15 4.256m-26.63-48.286 18.403-26.283q-10.106-2.364-20.225-4.633-10.12-2.269-20.272-4.543 5.56 8.833 11.07 17.684 5.51 8.851 11.024 17.775"/>
    <rect width="75.693" height="150.58" x="-37.846" y="-75.29" fill="none" rx="0" ry="0" transform="matrix(1.1796 -.826 .826 1.1796 211.467 224.608)"/>
    <path fill="#F6F5EA" d="m283.456 256.76-10.805 7.566q-2.76 1.933-5.223-.58-1.343-1.415-2.675-2.891-1.332-1.476-2.592-2.95-.166-.235-.744-.71-.566-.482-.967-.2-.307.214-.413.816-.106.601-.106.953-.998 9.647-6.648 17.47-5.63 7.828-13.44 13.296-6.393 4.477-13.928 6.395-7.526 1.93-14.611-.054-7.096-1.975-12.118-9.147-6.41-9.154-12.735-18.438-6.316-9.272-12.668-18.344l-8.566-12.233q-2.263-3.232.981-5.503l12.15-8.508q3.233-2.263 5.496.97l8.673 12.385q5.195 7.42 10.358 14.969 5.182 7.552 10.498 14.993 4.535 6.125 10.232 5.95 5.705-.162 11.39-4.143 7.102-4.972 9.417-12.236 2.327-7.273.798-15.08-1.537-7.82-6.063-14.284l-19.394-27.698q-2.264-3.232.969-5.495l12.067-8.45q3.244-2.272 5.508.96 2.378 3.398 4.702 6.817 2.343 3.422 4.722 6.82 6.071 8.67 12.326 17.352 6.247 8.67 12.409 17.295 2.957 4.047 5.974 8.105 3.025 4.07 5.95 8.246 2.32 3.314-.924 5.586"/>
    <rect width="76.035" height="150.58" x="-38.018" y="-75.29" fill="none" rx="0" ry="0" transform="matrix(1.3843 -.3969 .3969 1.3843 310.01 178.466)"/>
    <path fill="#F6F5EA" d="M319.909 247.882q-12.597 3.611-22.906.155-10.309-3.456-17.594-12.093-7.285-8.638-10.654-20.39-3.663-12.777-1.782-24.192 1.894-11.42 9.387-19.874 7.503-8.473 20.834-12.295 14.714-4.218 28.095 1.173 1.013.399 1.47.268.567-.163.468-.823-.09-.679-.17-.955-2.495-8.708-4.922-17.33-2.414-8.626-4.827-17.357-1.074-4.11-2.377-8.291-1.29-4.185-2.156-8.25-.81-3.873 2.706-4.881l14.452-4.143q3.793-1.088 4.908 2.802 1.46 5.094 2.766 10.173 1.31 5.092 2.674 10.214 5.803 21.286 11.935 42.673 6.104 21.29 12.488 42.515 1.557 5.066 3.144 10.08 1.583 4.998 3.044 10.092 1.115 3.89-2.678 4.978l-14.632 4.194q-3.433.985-4.313-1.564-.885-2.563-1.672-4.944-.08-.277-.333-.848-.272-.581-.742-.447-.457.131-1.101 1.02-4.793 6.692-11.168 11.366-6.385 4.692-14.344 6.974m.903-22.4q8.14-2.334 13.278-7.822 5.155-5.478 5.763-14.176-1.026-3.21-1.93-6.367-.902-3.142-1.802-6.285-.429-1.495-.836-3.28-.407-1.786-.998-3.115-.377-1-1.78-2.396l-2.117-2.104q-4.903-4.197-11.337-5.11-6.42-.915-12.524.835-7.046 2.02-11.27 7.036-4.225 5.016-5.402 11.57-1.177 6.555.76 13.31 1.833 6.396 6.455 11.123 4.61 4.745 10.88 6.707 6.285 1.959 12.86.074"/>
    <rect width="75.693" height="150.58" x="-37.846" y="-75.29" fill="none" rx="0" ry="0" transform="matrix(1.438 .0753 -.0753 1.438 417.889 166.98)"/>
    <path fill="#F6F5EA" d="m454.822 236.629-13.172-.69q-3.364-.176-3.758-3.672-.187-1.942-.328-3.925-.141-1.982-.227-3.92.015-.287-.149-1.016-.15-.729-.638-.755-.374-.02-.828.39-.454.408-.67.685-6.725 6.988-15.993 9.675-9.255 2.701-18.774 2.203-7.794-.408-14.912-3.535-7.119-3.113-11.48-9.037-4.376-5.924-3.919-14.667.585-11.16 1.316-22.368.73-11.194 1.31-22.252l.78-14.912q.207-3.94 4.162-3.733l14.81.775q3.94.207 3.735 4.147l-.791 15.099q-.474 9.045-1.053 18.17-.565 9.142-.957 18.277-.197 7.618 4.4 10.988 4.595 3.384 11.526 3.747 8.656.453 14.952-3.846 6.31-4.298 9.912-11.391 3.602-7.108 4.014-14.988l1.769-33.764q.206-3.94 4.146-3.733l14.71.77q3.955.207 3.749 4.147-.217 4.142-.49 8.266-.26 4.139-.478 8.28-.553 10.57-.969 21.261-.415 10.678-.869 21.266-.161 5.01-.282 10.065-.12 5.069-.387 10.16-.212 4.04-4.167 3.833"/>
    <rect width="59.595" height="150.58" x="-29.798" y="-75.29" fill="none" rx="0" ry="0" transform="matrix(1.3532 .4925 -.4925 1.3532 512.71 186.486)"/>
    <path fill="#F6F5EA" d="M516.674 211.101q-.098.27.74 4.576.854 4.31 2.199 10.592 1.359 6.287 2.816 12.809 1.471 6.527 2.547 11.485 1.063 4.954 1.352 6.392.2.884.31 1.844.11.96-.22 1.866-.625 1.719-2.342 1.508-1.716-.21-2.988-.674l-17.374-6.323q-1.908-.695-2.46-2.842-1.797-6.6-3.055-13.417-1.258-6.817-2.755-13.4-.245-1.008-.61-1.141-.366-.133-3.168 2.219-2.807 2.365-6.543 5.725-3.731 3.346-6.87 6.203-3.14 2.857-4.27 3.687-1.866 1.466-3.95.708l-12.665-4.61q-1.178-.428-2.668-1.384-1.505-.962-.88-2.68.33-.907 1.086-1.551.742-.65 1.369-1.234 1.034-.864 4.828-3.836 3.794-2.971 8.732-6.813 4.938-3.842 9.652-7.658l7.924-6.403q3.19-2.578 3.324-2.943.231-.636-.76-5.241-.985-4.619-2.455-11.146-1.471-6.527-2.948-13.164-1.477-6.636-2.379-11.485-.907-4.835-.542-5.836.625-1.719 2.382-1.493 1.765.244 2.943.672l17.564 6.393q1.989.724 2.54 2.87.388 1.168 1.141 5.289.772 4.111 1.734 8.92.962 4.81 1.761 8.38.8 3.571 1.166 3.704.541.197 1.36-.623 4.28-3.883 8.104-8.33 3.825-4.446 8.104-8.329 1.87-1.77 4.13-.948l12.314 4.481q1.272.463 2.667 1.43 1.381.963.79 2.587-.364 1.001-3.778 4.065-3.427 3.059-8.32 7.07-4.892 4.012-9.791 7.915-4.912 3.897-8.242 6.73-3.349 2.843-3.546 3.384"/>
    <rect width="90.42" height="150.58" x="-45.21" y="-75.29" fill="none" rx="0" ry="0" transform="matrix(.982 1.0532 -1.0532 .982 642.918 272.998)"/>
    <path fill="#F6F5EA" d="m564.329 287.88-10.509-11.27q-.913-.979-1.658-2.411-.735-1.422.603-2.669.569-.53 1.333-.83.765-.32 1.457-.57 19.16-6.29 38.233-12.674 19.073-6.384 38.116-13.075 15.66-5.525 31.292-11.143 15.643-5.628 31.352-10.805.627-.171 1.08.313.46.495.236 1.099-6.252 15.32-12.958 30.531-6.695 15.202-13.3 30.438-8.004 18.53-15.705 37.11-7.71 18.57-15.311 37.255-.299.672-.671 1.413-.362.732-.93 1.262-1.338 1.247-2.705.415-1.367-.833-2.28-1.812l-13.278-14.24q-1.64-1.758-.736-4.315.607-1.609 1.42-3.292.802-1.674 1.467-3.22 2.085-4.838 4.394-9.688 2.32-4.86 4.336-9.773.361-.731-.169-1.3l-32.517-34.872q-.53-.568-1.284-.259-5.1 1.605-10.18 3.506-5.068 1.891-10.183 3.628-1.578.567-3.343 1.208-1.755.652-3.471 1.07-2.55.666-4.131-1.03m52.767-16.007 21.88 23.466q4.415-9.393 8.738-18.82 4.324-9.426 8.659-18.882-9.796 3.6-19.6 7.15-9.803 3.55-19.677 7.086"/>
    <rect width="32.538" height="150.58" x="-16.269" y="-75.29" fill="none" rx="0" ry="0" transform="matrix(.676 1.2714 -1.2714 .676 693.895 345.737)"/>
    <path fill="#F6F5EA" d="M743.797 304.394q3.496-1.859 5.355 1.637l7.823 14.71q1.852 3.484-1.644 5.343-14.023 7.457-28.107 14.832-14.076 7.388-28.112 14.852-14.024 7.457-28.019 14.997-13.989 7.553-28.025 15.017-3.483 1.852-5.336-1.631l-7.822-14.71q-1.86-3.496 1.624-5.349 14.036-7.464 28.12-14.839 14.083-7.375 28.106-14.832 14.036-7.464 28.025-15.017 13.989-7.552 28.012-15.01"/>
    <path fill="#3B63FF" d="M360.812 358.25h139.04c16.394 0 29.68 13.285 29.68 29.68v142.746a29.67 29.67 0 0 1-8.695 20.986l-74.189 74.188a29.687 29.687 0 0 1-20.985 8.694H296.22c-16.394 0-29.679-13.284-29.679-29.679V486.102a29.699 29.699 0 0 1 4.885-16.311l64.593-98.173a29.676 29.676 0 0 1 24.794-13.368"/>
</svg>
