<?xml version="1.0" encoding="UTF-8"?>
<svg version="1.1" xmlns="http://www.w3.org/2000/svg" width="2000" height="502">
<path d="M0 0 C1.04290359 -0.00226556 2.08580718 -0.00453111 3.1603139 -0.00686532 C6.6483759 -0.0131859 10.13639886 -0.0123772 13.62446594 -0.0115509 C16.12816417 -0.01454363 18.63186193 -0.01794643 21.13555908 -0.02172852 C27.22735613 -0.02964454 33.31913788 -0.03278271 39.41093864 -0.03334089 C44.36585718 -0.03381682 49.32077254 -0.03587539 54.27569008 -0.03904152 C68.33995397 -0.04784476 82.40421025 -0.05246151 96.46847691 -0.05171105 C97.22603728 -0.05167109 97.98359764 -0.05163113 98.76411438 -0.05158997 C99.52260553 -0.05154909 100.28109667 -0.0515082 101.0625724 -0.05146609 C113.34690057 -0.05105989 125.63119805 -0.06062364 137.91551735 -0.07472833 C150.54481768 -0.08911406 163.17410306 -0.09599728 175.80341178 -0.09513456 C182.88737364 -0.09480331 189.97130334 -0.09751866 197.0552578 -0.10831261 C203.72093238 -0.11840449 210.38652798 -0.11805984 217.05220985 -0.11079597 C219.49342574 -0.10975242 221.93464589 -0.11209934 224.37585449 -0.11815643 C227.71915445 -0.12591193 231.06222236 -0.12120796 234.40551758 -0.11352539 C235.84004832 -0.12124074 235.84004832 -0.12124074 237.30355948 -0.12911195 C247.30750754 -0.07862928 256.87142261 1.05534028 265.7702179 5.82121277 C266.45205139 6.17715515 267.13388489 6.53309753 267.83638 6.89982605 C281.05555946 14.01188069 288.80167314 24.97285911 293.5202179 39.13371277 C296.58954004 51.44171681 295.80185822 64.4018663 295.77900696 76.97917175 C295.78172035 79.49036256 295.78528324 82.00155257 295.78962708 84.51274109 C295.79777098 90.60039373 295.79661911 96.68798164 295.79080179 102.77563506 C295.78626712 107.72801193 295.78568017 112.68037501 295.78784943 117.63275337 C295.78815589 118.34021772 295.78846236 119.04768207 295.78877811 119.77658473 C295.78941763 121.21423356 295.79006605 122.65188238 295.79072329 124.08953119 C295.79641356 137.54079063 295.78988944 150.99202271 295.77912256 164.44327766 C295.77019018 175.95867402 295.77173905 187.47403003 295.78096008 198.98942566 C295.79168918 212.39419676 295.79586232 225.79894393 295.78973556 239.20371872 C295.78909853 240.63609794 295.78846978 242.06847717 295.78784943 243.5008564 C295.78754088 244.20542793 295.78723232 244.90999946 295.78691442 245.63592164 C295.78519524 250.57578305 295.78808578 255.51562916 295.79280853 260.4554882 C295.79903877 267.11797179 295.79453477 273.78036802 295.78302002 280.44284821 C295.78038804 282.8800017 295.78111335 285.31716163 295.78554535 287.75431252 C295.83213219 315.98747131 292.2496848 333.60775364 271.9392395 354.00796509 C270.66775665 355.27874915 269.39616175 356.54942111 268.12446594 357.81999207 C266.76982119 359.18063034 265.41558423 360.54167472 264.0617218 361.90309143 C260.40320436 365.57918686 256.73830819 369.2488568 253.07163215 372.91681266 C250.77735418 375.21251683 248.48450814 377.50964123 246.19216347 379.80727577 C238.18457407 387.83333454 230.17186889 395.85424438 222.1542511 403.87028503 C214.69641926 411.32691461 207.24982442 418.79463668 199.80839318 426.26763028 C193.40341736 432.69879657 186.99071408 439.12218826 180.57199126 445.53963405 C176.74525292 449.36586381 172.92164657 453.19509684 169.10579491 457.03218651 C165.51705753 460.64035415 161.91875227 464.23870293 158.31304169 467.82990646 C156.99628006 469.14458525 155.68288392 470.46264545 154.37324715 471.78442192 C145.98670755 480.24360752 137.98977847 487.79634691 126.3327179 491.44621277 C125.39041321 491.75172058 124.44810852 492.05722839 123.47724915 492.37199402 C116.89034097 494.06875372 110.47625786 494.27907706 103.7237854 494.26742554 C102.75438575 494.26969109 101.78498611 494.27195665 100.78621072 494.27429086 C97.54689947 494.28060689 94.30763031 494.27980303 91.0683136 494.27897644 C88.74195298 494.28196946 86.41559287 494.28537232 84.0892334 494.28915405 C77.77499132 494.29798453 71.46076279 494.30033179 65.14651513 494.30096984 C61.19901593 494.30168098 57.25152018 494.30381652 53.30402184 494.30646706 C40.23583321 494.31524061 27.16765311 494.31988716 14.09946153 494.31913658 C13.39566709 494.31909663 12.69187265 494.31905667 11.9667511 494.3190155 C11.26209102 494.31897462 10.55743094 494.31893374 9.83141752 494.31889162 C-1.57993059 494.31848546 -12.99124566 494.32804842 -24.40258422 494.34215387 C-36.13691489 494.35654336 -47.87122947 494.36342261 -59.60556918 494.36256009 C-66.18651071 494.3623055 -72.76741485 494.36513517 -79.34834862 494.37573814 C-85.54125587 494.3854435 -91.73409017 494.38548155 -97.92700005 494.37822151 C-100.19405982 494.37717865 -102.4611242 494.37952077 -104.72817612 494.38558197 C-126.08266753 494.43895629 -143.60386001 493.24645915 -159.8235321 477.91886902 C-170.56681621 466.87119186 -174.80213992 453.59522521 -174.74720764 438.48313904 C-174.75173875 437.55357163 -174.75626987 436.62400423 -174.76093829 435.66626811 C-174.77352617 432.57365903 -174.77196555 429.48122733 -174.77030945 426.38859558 C-174.7762982 424.16208166 -174.78310454 421.93556981 -174.79066467 419.70906067 C-174.80829654 413.67584415 -174.81301887 407.64268441 -174.81429625 401.60944462 C-174.81572 397.83579738 -174.81999385 394.06216448 -174.82529068 390.28852081 C-174.84282841 377.79058382 -174.85213209 365.29267897 -174.85062973 352.79473224 C-174.85054982 352.12220129 -174.85046991 351.44967033 -174.85038757 350.75675964 C-174.85030581 350.08339902 -174.85022405 349.41003841 -174.85013981 348.71627292 C-174.84932736 337.81007138 -174.86845883 326.90400809 -174.89666431 315.99784651 C-174.92545682 304.77533876 -174.93883562 293.55289621 -174.93747675 282.33034396 C-174.93696798 276.03942847 -174.9426048 269.74866952 -174.96383286 263.45778656 C-174.98326391 257.53809346 -174.98330624 251.61870547 -174.96879959 245.69900131 C-174.96671645 243.53394752 -174.97138266 241.36887438 -174.98352051 239.20385361 C-175.09189532 218.52373352 -170.39651623 204.49570987 -158.6672821 187.32121277 C-157.42636178 185.4809678 -156.18690266 183.63973704 -154.9485321 181.79777527 C-153.90052429 180.2397821 -153.90052429 180.2397821 -152.8313446 178.65031433 C-148.06027972 171.53202856 -143.37265682 164.35798856 -138.6672821 157.19621277 C-137.58424202 155.54863817 -136.50115233 153.90109617 -135.41801453 152.25358582 C-133.20575085 148.88844628 -130.9937925 145.52310633 -128.7820282 142.15763855 C-125.58498513 137.29329823 -122.38623405 132.43008326 -119.18681335 127.56730652 C-118.67403839 126.78793228 -118.16126343 126.00855804 -117.63294983 125.20556641 C-115.03911038 121.26328041 -112.44505493 117.32113662 -109.85087585 113.3790741 C-104.6750122 105.51344116 -99.50202423 97.64594535 -94.33525085 89.77433777 C-89.70583792 82.72199064 -85.06841977 75.67496924 -80.42312622 68.6330719 C-77.53939653 64.2611136 -74.65993753 59.88641653 -71.78642273 55.50773621 C-68.62251231 50.68750544 -65.44870336 45.87391737 -62.26875305 41.06425476 C-61.04877364 39.21561464 -59.83203605 37.36483044 -58.61878967 35.51176453 C-56.92373249 32.9240668 -55.2168342 30.34455856 -53.50712585 27.76652527 C-52.76949005 26.63149063 -52.76949005 26.63149063 -52.01695251 25.473526 C-43.71951773 13.04964415 -32.30480351 4.20748116 -17.4797821 1.13371277 C-11.62204287 0.11111805 -5.93884537 -0.00950577 0 0 Z " fill="#3B63FE" transform="translate(193.4797821044922,3.8662872314453125)"/>
<path d="M0 0 C31.35 0 62.7 0 95 0 C103.99327785 34.47423178 111.71325051 68.64885104 115.79541016 104.03564453 C115.94155762 105.30005371 116.08770508 106.56446289 116.23828125 107.8671875 C116.36243408 108.98206543 116.48658691 110.09694336 116.61450195 111.24560547 C116.92646781 114.08220627 116.92646781 114.08220627 118 117 C118.06993164 116.38406982 118.13986328 115.76813965 118.21191406 115.13354492 C121.22905971 88.777177 125.09130633 62.87492671 131 37 C131.33499512 35.50968262 131.33499512 35.50968262 131.67675781 33.98925781 C132.29602785 31.24060098 132.9262295 28.49476671 133.5625 25.75 C133.73579834 24.99025879 133.90909668 24.23051758 134.08764648 23.44775391 C135.98604059 15.46542201 138.53257895 7.89574737 141 0 C172.35 0 203.7 0 236 0 C240.77189192 17.29810822 245.38823661 34.07068058 248.625 51.625 C248.90065796 53.08660049 248.90065796 53.08660049 249.18188477 54.57772827 C260 112.01161168 260 112.01161168 260 138 C238.22 138 216.44 138 194 138 C192.79970092 135.59940183 192.88540257 134.10639351 192.90234375 131.4296875 C192.90556641 130.53378906 192.90878906 129.63789063 192.91210938 128.71484375 C192.92048828 127.77769531 192.92886719 126.84054688 192.9375 125.875 C192.94201172 124.93011719 192.94652344 123.98523438 192.95117188 123.01171875 C192.96297625 120.6744523 192.98091201 118.33721831 193 116 C188.71 116 184.42 116 180 116 C180 123.26 180 130.52 180 138 C138.09 138 96.18 138 53 138 C52.25374147 132.77619029 51.89135805 128.2765398 51.9375 123.0625 C51.94201172 122.37865234 51.94652344 121.69480469 51.95117188 120.99023438 C51.9628044 119.32678396 51.98073306 117.6633795 52 116 C47.71 116 43.42 116 39 116 C39.01160156 117.00160156 39.02320313 118.00320312 39.03515625 119.03515625 C39.04454398 120.37760228 39.05364312 121.72005036 39.0625 123.0625 C39.07410156 124.37347656 39.08570313 125.68445313 39.09765625 127.03515625 C39 131 39 131 38 138 C17.54 138 -2.92 138 -24 138 C-24 117.29042727 -24 117.29042727 -22.86328125 109.56640625 C-22.74377609 108.6882576 -22.62427094 107.81010895 -22.50114441 106.90534973 C-22.11810966 104.12236165 -21.71660099 101.34250047 -21.3125 98.5625 C-21.03621777 96.60826967 -20.76017877 94.65400494 -20.484375 92.69970703 C-11.27761728 28.19404319 -11.27761728 28.19404319 0 0 Z " fill="#F4F4EA" transform="translate(195,86)"/>
<path d="M0 0 C1.14469505 -0.00287018 1.14469505 -0.00287018 2.31251526 -0.00579834 C3.92555064 -0.00715848 5.53859702 -0.00347394 7.15161133 0.00488281 C9.61629958 0.01557033 12.08025652 0.00498968 14.54492188 -0.0078125 C16.11328285 -0.00649059 17.68164338 -0.00392753 19.25 0 C19.98552597 -0.00404846 20.72105194 -0.00809692 21.47886658 -0.01226807 C25.17544874 0.02147025 28.11380071 0.08755343 31.19140625 2.265625 C32.35651645 4.59584539 32.32070283 5.94975727 32.32842064 8.5454464 C32.33349518 9.44916115 32.33856972 10.35287591 32.34379804 11.28397596 C32.3442958 12.28317741 32.34479356 13.28237885 32.3453064 14.31185913 C32.35187978 15.8966491 32.35187978 15.8966491 32.35858595 17.51345503 C32.37201132 21.07716838 32.37816114 24.64085698 32.38427734 28.20458984 C32.39217523 30.75008762 32.40044398 33.29558426 32.40905762 35.84107971 C32.43304283 43.49623846 32.4482089 51.15139601 32.46111768 58.80658048 C32.46482863 60.96775428 32.46880192 63.12892743 32.47287035 65.29010057 C32.49810301 78.70368022 32.52016139 92.11726085 32.5325985 105.53085899 C32.5355283 108.63841124 32.53848995 111.74596346 32.54150391 114.85351562 C32.54224996 115.62590461 32.54299601 116.39829359 32.54376467 117.1940883 C32.55642551 129.71375674 32.58965803 142.23328339 32.63130574 154.75288551 C32.67369016 167.59895008 32.69728937 180.44494197 32.70251906 193.2910763 C32.70593689 200.50684476 32.71773563 207.72239153 32.7506218 214.93809128 C32.78149262 221.72278751 32.78705891 228.50702907 32.77523804 235.29180717 C32.77501627 237.78638206 32.78340592 240.28097429 32.80089188 242.7754879 C32.82341493 246.17260655 32.81536595 249.56830016 32.79940796 252.96542358 C32.81329005 253.96016359 32.82717213 254.95490359 32.84147489 255.97978723 C32.76428444 262.61629152 32.76428444 262.61629152 29.88572121 265.8790226 C26.3064542 267.72105677 23.1195653 267.8042656 19.1875 267.7265625 C18.04704979 267.72518784 18.04704979 267.72518784 16.88356018 267.7237854 C15.28241704 267.7177641 13.6812844 267.70206222 12.08032227 267.67724609 C9.63320315 267.64068919 7.18759839 267.63622736 4.74023438 267.63671875 C3.18097654 267.62688823 1.62172891 267.61523151 0.0625 267.6015625 C-1.03137779 267.59822403 -1.03137779 267.59822403 -2.14735413 267.59481812 C-8.84065583 267.4700098 -8.84065583 267.4700098 -11.80859375 265.265625 C-12.94937032 261.84329528 -12.90674492 259.17889283 -12.87109375 255.578125 C-12.86207031 254.39863281 -12.85304688 253.21914063 -12.84375 252.00390625 C-12.82634766 250.64845703 -12.82634766 250.64845703 -12.80859375 249.265625 C-13.82566406 249.91917969 -13.82566406 249.91917969 -14.86328125 250.5859375 C-17.83845022 252.48971598 -20.82366186 254.3771987 -23.80859375 256.265625 C-25.04609375 257.07 -25.04609375 257.07 -26.30859375 257.890625 C-45.67991613 270.1251444 -69.54640301 273.55982012 -91.93798828 269.1340332 C-104.3323648 266.25019312 -114.34014338 260.690941 -123.80859375 252.265625 C-124.50726562 251.66105469 -125.2059375 251.05648437 -125.92578125 250.43359375 C-140.66943322 236.80862354 -149.00512581 214.77323902 -149.96972656 194.95507812 C-150.34176887 164.75908623 -150.34176887 164.75908623 -146.80859375 153.265625 C-146.45667969 152.09773437 -146.10476563 150.92984375 -145.7421875 149.7265625 C-141.05654929 135.5304705 -134.31210148 124.6769967 -123.80859375 114.265625 C-123.174375 113.59789062 -122.54015625 112.93015625 -121.88671875 112.2421875 C-110.04781238 100.66520384 -91.04250584 94.91498148 -74.80859375 94.265625 C-73.85082031 94.22566406 -72.89304687 94.18570313 -71.90625 94.14453125 C-51.9843981 93.73402036 -34.78276691 98.1043856 -18.46875 109.5078125 C-16.06190358 111.44939265 -16.06190358 111.44939265 -13.80859375 111.265625 C-13.79646347 109.3278997 -13.79646347 109.3278997 -13.78408813 107.35102844 C-13.70663393 95.18224535 -13.6188963 83.01357417 -13.52106667 70.84493732 C-13.47110156 64.58878615 -13.42477135 58.33265189 -13.38671875 52.07641602 C-13.34986893 46.03983662 -13.30350945 40.00339857 -13.25053024 33.96693993 C-13.23198475 31.6628689 -13.21687737 29.35876758 -13.20524979 27.05465126 C-13.18839028 23.8296623 -13.15935529 20.60499716 -13.12744141 17.38012695 C-13.12420113 15.94837631 -13.12420113 15.94837631 -13.12089539 14.48770142 C-13.01383435 6.02958953 -13.01383435 6.02958953 -10.80859375 2.265625 C-7.11075153 -0.19960315 -4.27767854 -0.02348046 0 0 Z M-92.80859375 145.265625 C-102.52726113 158.05754655 -105.75717999 171.38111718 -104.80859375 187.265625 C-102.39711873 201.86739105 -94.63879488 213.44546444 -82.80859375 222.203125 C-71.80037605 229.41189622 -60.08467523 230.16278124 -47.30078125 228.05078125 C-35.26935972 225.3457301 -25.49884176 219.53007799 -18.1953125 209.55078125 C-14.32544937 203.17368284 -12.1945059 198.27888614 -12.27734375 190.7421875 C-12.27351685 189.95597015 -12.26968994 189.16975281 -12.26574707 188.35971069 C-12.26304304 186.70756743 -12.27029781 185.05538025 -12.28710938 183.40332031 C-12.30848535 180.90330305 -12.28728843 178.40617767 -12.26171875 175.90625 C-12.23807339 162.82979327 -14.40578728 152.9566401 -23.80859375 143.265625 C-43.39341579 126.3544988 -74.89844331 125.1118704 -92.80859375 145.265625 Z " fill="#3A62FF" transform="translate(1176.80859375,164.734375)"/>
<path d="M0 0 C1.90649414 0.15625 1.90649414 0.15625 4 1 C5.31420898 2.90625 5.31420898 2.90625 6.49609375 5.5 C6.96152588 6.50748291 7.42695801 7.51496582 7.90649414 8.55297852 C8.66434204 10.25925415 8.66434204 10.25925415 9.4375 12 C9.98949159 13.21636482 10.54216982 14.43241822 11.09545898 15.64819336 C18.21609488 31.40126727 24.91474635 47.34744555 31.69282532 63.24977112 C36.33799371 74.14580667 41.05381909 85.0019457 45.90014648 95.81005859 C49.10303557 102.95833763 52.22919709 110.13670246 55.3258667 117.331604 C63.30492589 135.86205943 71.60405646 154.2468597 79.9251709 172.62573242 C80.94321812 174.8745704 81.96050124 177.12375225 82.97753906 179.37304688 C88.84498 192.34622888 94.74598651 205.3032914 100.72265625 218.2265625 C101.12523651 219.09729904 101.52781677 219.96803558 101.94259644 220.86515808 C103.90379199 225.10571443 105.86760852 229.34502542 107.8359375 233.58227539 C109.5837235 237.34897849 111.31935648 241.12099744 113.04180908 244.89935303 C113.67403174 246.28537807 114.30886589 247.67021527 114.94647217 249.05377197 C115.81867923 250.95391026 116.67530756 252.86027924 117.52734375 254.76953125 C118.24845337 256.36631714 118.24845337 256.36631714 118.98413086 257.99536133 C120.07724474 261.22846695 120.34622745 263.6118091 120 267 C116.9563946 270.0436054 113.94303446 270.12167487 109.76977539 270.16113281 C108.94534439 270.17074036 108.12091339 270.1803479 107.27149963 270.19024658 C105.94794716 270.1966214 105.94794716 270.1966214 104.59765625 270.203125 C103.68294052 270.20882507 102.76822479 270.21452515 101.82579041 270.22039795 C99.89339347 270.22983216 97.96098056 270.23637565 96.02856445 270.24023438 C93.07670051 270.24995325 90.12552917 270.28099681 87.17382812 270.3125 C85.29427496 270.31902925 83.41471683 270.32428003 81.53515625 270.328125 C80.65481216 270.3404718 79.77446808 270.3528186 78.8674469 270.36553955 C74.13171949 270.34836619 70.73970324 270.23915835 67 267 C65.58129883 264.74536133 65.58129883 264.74536133 64.45703125 262.08203125 C64.0276123 261.08582764 63.59819336 260.08962402 63.15576172 259.06323242 C62.71248535 257.99049072 62.26920898 256.91774902 61.8125 255.8125 C61.34344238 254.71075439 60.87438477 253.60900879 60.39111328 252.47387695 C58.91225095 248.98876571 57.45590552 245.49475425 56 242 C55.03373961 239.71564316 54.0663162 237.43177787 53.09765625 235.1484375 C51.35636701 231.02294503 49.61637476 226.89699623 47.8984375 222.76171875 C47.55474121 221.93631592 47.21104492 221.11091309 46.85693359 220.26049805 C46 218 46 218 45 214 C13.98 214 -17.04 214 -49 214 C-49.99 216.97 -49.99 216.97 -51 220 C-51.91920811 222.22858857 -52.86377161 224.44682177 -53.828125 226.65625 C-54.09961365 227.28043823 -54.37110229 227.90462646 -54.65081787 228.54772949 C-55.51481413 230.5328748 -56.38227206 232.51648342 -57.25 234.5 C-58.09907261 236.44698619 -58.94741266 238.39428905 -59.79528809 240.34179688 C-60.35852529 241.63402976 -60.92305889 242.92569838 -61.4888916 244.21679688 C-62.89763123 247.43677316 -64.28167056 250.66377017 -65.61914062 253.9140625 C-65.88063904 254.54340698 -66.14213745 255.17275146 -66.41156006 255.82116699 C-67.12498071 257.54306675 -67.82988347 259.26848868 -68.53417969 260.99414062 C-70.04831089 264.09906791 -71.65196916 266.47064963 -74 269 C-77.57241279 270.19080426 -80.83595718 270.16216094 -84.5546875 270.16796875 C-85.29324982 270.17129715 -86.03181213 270.17462555 -86.79275513 270.17805481 C-88.35450621 270.18311412 -89.91626808 270.18546344 -91.47802734 270.18530273 C-93.85923226 270.18748555 -96.239971 270.20564119 -98.62109375 270.22460938 C-100.14062342 270.2275443 -101.66015529 270.22952843 -103.1796875 270.23046875 C-103.88817841 270.23765427 -104.59666931 270.24483978 -105.32662964 270.25224304 C-109.50656213 270.23306731 -113.86998286 270.13001714 -117 267 C-117.02736089 260.51120911 -115.141329 255.20490506 -112.34375 249.453125 C-111.96978592 248.65676132 -111.59582184 247.86039764 -111.21052551 247.03990173 C-109.98547446 244.43751076 -108.74261487 241.84404352 -107.5 239.25 C-106.63417586 237.41647197 -105.76985883 235.58223156 -104.90698242 233.74731445 C-103.13757064 229.98683021 -101.36263997 226.2290336 -99.58349609 222.47314453 C-95.76771802 214.40501874 -92.03493524 206.29901349 -88.3125 198.1875 C-87.79064117 197.05184601 -87.79064117 197.05184601 -87.25823975 195.89324951 C-80.07836252 180.26274604 -73.07896189 164.55426244 -66.13037109 148.81982422 C-64.2597806 144.58521332 -62.38286692 140.35343044 -60.5045929 136.1222229 C-52.71853802 118.58102379 -44.96702594 101.02806772 -37.4375 83.375 C-27.02931641 58.97328906 -16.4690513 34.6273229 -5.4375 10.5 C-4.99051758 9.52135986 -4.54353516 8.54271973 -4.08300781 7.53442383 C-1.12958097 1.12958097 -1.12958097 1.12958097 0 0 Z M-2 104 C-2.27482208 104.64542755 -2.54964417 105.2908551 -2.83279419 105.95584106 C-5.4502367 112.1028989 -8.06783853 118.24988888 -10.68560982 124.39680672 C-12.29429194 128.17425032 -13.90284556 131.9517486 -15.51128006 135.72929764 C-16.29166516 137.56198377 -17.07219319 139.39460903 -17.85272217 141.22723389 C-18.86653632 143.60795212 -19.87992869 145.98885 -20.8928833 148.36993408 C-22.94218106 153.18450789 -24.99296271 157.99800118 -27.08105469 162.79589844 C-27.36995575 163.46128632 -27.65885681 164.12667419 -27.95651245 164.81222534 C-28.6695205 166.45024675 -29.38699816 168.08632078 -30.10498047 169.72216797 C-31.12190264 171.90234962 -31.12190264 171.90234962 -31 174 C-11.53 174 7.94 174 28 174 C26.06186299 168.18558896 24.09032047 162.52588445 21.77734375 156.87109375 C21.47531036 156.12651917 21.17327698 155.38194458 20.86209106 154.61480713 C19.89010564 152.2211892 18.91396119 149.82929514 17.9375 147.4375 C17.26541571 145.78561518 16.5934602 144.13367797 15.92163086 142.48168945 C10.68694384 129.62417732 5.38393636 116.79578985 0 104 C-0.66 104 -1.32 104 -2 104 Z " fill="#3A62FF" transform="translate(690,162)"/>
<path d="M0 0 C1.85449219 0.03417969 1.85449219 0.03417969 4 1 C5.31765747 3.16268531 6.3289315 5.14671161 7.328125 7.453125 C7.63399033 8.12763199 7.93985565 8.80213898 8.25498962 9.49708557 C9.26799121 11.74178999 10.25909404 13.99546411 11.25 16.25 C11.95772603 17.83207843 12.6664835 19.41369582 13.3762207 20.99487305 C15.60868544 25.9858889 17.80847759 30.99089314 20 36 C20.34987976 36.79915833 20.69975952 37.59831665 21.0602417 38.42169189 C25.46000031 48.48053132 29.80554415 58.56235629 34.13330078 68.65234375 C36.94802268 75.21258327 39.78535099 81.7630203 42.625 88.3125 C42.88779755 88.91873199 43.15059509 89.52496399 43.4213562 90.14956665 C45.27891054 94.43391091 47.13876838 98.71725225 49 103 C49.27009888 103.62163025 49.54019775 104.2432605 49.81848145 104.88372803 C65.9449052 141.98878437 82.52845642 178.89188566 99.43359375 215.6484375 C99.80928497 216.46539597 100.1849762 217.28235443 100.572052 218.12406921 C102.38443598 222.06425368 104.19846769 226.003665 106.015625 229.94165039 C107.6775249 233.54473607 109.32751853 237.15312978 110.97381592 240.7633667 C112.06565841 243.14310667 113.17379771 245.51492385 114.28173828 247.88720703 C115.02297432 249.49878741 115.76371109 251.11059753 116.50390625 252.72265625 C116.85436508 253.46309677 117.20482391 254.20353729 117.56590271 254.96641541 C119.44914968 259.10757478 120.61242579 262.35087426 120 267 C116.9563946 270.0436054 113.94303446 270.12167487 109.76977539 270.16113281 C108.94534439 270.17074036 108.12091339 270.1803479 107.27149963 270.19024658 C105.94794716 270.1966214 105.94794716 270.1966214 104.59765625 270.203125 C103.68294052 270.20882507 102.76822479 270.21452515 101.82579041 270.22039795 C99.89339347 270.22983216 97.96098056 270.23637565 96.02856445 270.24023438 C93.07670051 270.24995325 90.12552917 270.28099681 87.17382812 270.3125 C85.29427496 270.31902925 83.41471683 270.32428003 81.53515625 270.328125 C80.65481216 270.3404718 79.77446808 270.3528186 78.8674469 270.36553955 C74.11450698 270.34830377 70.79656166 270.19148464 67 267 C65.79663086 265.28369141 65.79663086 265.28369141 64.96484375 263.3515625 C64.63613281 262.60712891 64.30742188 261.86269531 63.96875 261.09570312 C63.6284375 260.28037109 63.288125 259.46503906 62.9375 258.625 C62.38255859 257.34399414 62.38255859 257.34399414 61.81640625 256.03710938 C60.52433588 253.03283463 59.26095571 250.01746386 58 247 C57.47838135 245.7612441 56.9563935 244.52264362 56.43408203 243.28417969 C54.78055728 239.35978798 53.13718614 235.43123426 51.5 231.5 C51.23275116 230.85863098 50.96550232 230.21726196 50.69015503 229.55645752 C49.92533294 227.71618082 49.16569497 225.87375223 48.40625 224.03125 C47.96603516 222.96455078 47.52582031 221.89785156 47.07226562 220.79882812 C46 218 46 218 45 214 C13.98 214 -17.04 214 -49 214 C-49.99 216.97 -49.99 216.97 -51 220 C-51.57942474 221.44770275 -52.17855357 222.88772427 -52.80004883 224.31787109 C-53.14413284 225.1124472 -53.48821686 225.90702332 -53.84272766 226.72567749 C-54.21044785 227.56643829 -54.57816803 228.4071991 -54.95703125 229.2734375 C-55.3418718 230.15601227 -55.72671234 231.03858704 -56.12321472 231.94790649 C-56.93626156 233.80932149 -57.75077012 235.67009863 -58.56665039 237.53027344 C-59.80415758 240.35595123 -61.03211533 243.18565352 -62.25976562 246.015625 C-63.05410224 247.83098537 -63.84900587 249.64609776 -64.64453125 251.4609375 C-65.00617874 252.29764984 -65.36782623 253.13436218 -65.74043274 253.99642944 C-70.43353018 264.62777136 -70.43353018 264.62777136 -74 269 C-77.57241279 270.19080426 -80.83595718 270.16216094 -84.5546875 270.16796875 C-85.29324982 270.17129715 -86.03181213 270.17462555 -86.79275513 270.17805481 C-88.35450621 270.18311412 -89.91626808 270.18546344 -91.47802734 270.18530273 C-93.85923226 270.18748555 -96.239971 270.20564119 -98.62109375 270.22460938 C-100.14062342 270.2275443 -101.66015529 270.22952843 -103.1796875 270.23046875 C-103.88817841 270.23765427 -104.59666931 270.24483978 -105.32662964 270.25224304 C-109.50656213 270.23306731 -113.86998286 270.13001714 -117 267 C-117.58609678 260.85810139 -115.9851777 256.87775504 -113.37109375 251.5078125 C-112.99038223 250.69795395 -112.60967072 249.8880954 -112.21742249 249.05369568 C-110.96936503 246.40497622 -109.70326969 243.76529421 -108.4375 241.125 C-107.55963653 239.26758285 -106.68335203 237.40941868 -105.80859375 235.55053711 C-104.04070723 231.79476991 -102.26785824 228.0414121 -100.49169922 224.28955078 C-97.08691843 217.08073206 -93.78453377 209.82669613 -90.5 202.5625 C-89.90016222 201.23840001 -89.30022638 199.91434444 -88.70019531 198.59033203 C-87.46150921 195.85636036 -86.2239201 193.12189504 -84.98681641 190.38720703 C-83.21241227 186.4665563 -81.43182272 182.548737 -79.65029907 178.63131714 C-65.28212497 147.03242895 -51.22760117 115.30462576 -37.59518433 83.38116455 C-27.31119378 59.30608877 -16.89343545 35.27803808 -5.9375 11.5 C-5.44290283 10.42613037 -4.94830566 9.35226074 -4.4387207 8.24584961 C-1.13246682 1.13246682 -1.13246682 1.13246682 0 0 Z M-2 104 C-6.65251 114.83454497 -11.29685083 125.67256912 -15.93548584 136.51306152 C-16.98448187 138.96374626 -18.0343879 141.41403941 -19.08447266 143.86425781 C-20.72862169 147.70162749 -22.36887891 151.54063909 -24.00628662 155.38088989 C-24.62680553 156.83461721 -25.2485903 158.28780486 -25.87164307 159.740448 C-26.73942241 161.764345 -27.60269392 163.79010608 -28.46484375 165.81640625 C-28.955896 166.96568604 -29.44694824 168.11496582 -29.95288086 169.29907227 C-31.12049134 171.82799352 -31.12049134 171.82799352 -31 174 C-11.53 174 7.94 174 28 174 C25.70919711 167.02471899 25.70919711 167.02471899 23.11816406 160.20898438 C22.61183441 158.97094055 22.61183441 158.97094055 22.09527588 157.70788574 C21.56084869 156.41388855 21.56084869 156.41388855 21.015625 155.09375 C20.63694275 154.170177 20.2582605 153.246604 19.86810303 152.29504395 C18.66482838 149.36222036 17.45748922 146.43109052 16.25 143.5 C15.45546023 141.56521459 14.66118735 139.63031955 13.8671875 137.6953125 C11.58198033 132.12861869 9.29154428 126.56408751 7 121 C6.2870826 119.26824019 5.5741911 117.53646972 4.86132812 115.8046875 C3.24137357 111.86959048 1.62087313 107.93471874 0 104 C-0.66 104 -1.32 104 -2 104 Z " fill="#3A62FF" transform="translate(1787,162)"/>
<path d="M0 0 C0.81130875 -0.0033284 1.62261749 -0.0066568 2.45851135 -0.01008606 C4.17586703 -0.01515255 5.89323256 -0.01749447 7.6105957 -0.01733398 C10.23991089 -0.01951962 12.86880601 -0.03767561 15.49804688 -0.05664062 C17.16536315 -0.05957475 18.83268141 -0.06155942 20.5 -0.0625 C21.6813578 -0.07327827 21.6813578 -0.07327827 22.88658142 -0.08427429 C26.72945315 -0.06816842 28.54241202 -0.01469407 31.81640625 2.16796875 C32.75102051 4.97181154 32.94497574 6.6756704 32.95443726 9.57499695 C32.95989059 10.4762883 32.96534393 11.37757965 32.97096252 12.30618286 C32.97200485 13.29270844 32.97304718 14.27923401 32.97412109 15.2956543 C32.97920181 16.33662766 32.98428253 17.37760101 32.98951721 18.45011902 C33.00022753 20.71400292 33.00884511 22.97789745 33.01563644 25.24179649 C33.02741844 28.82741715 33.04687069 32.41291698 33.0687561 35.99848938 C33.13038823 46.19450853 33.18438151 56.39051612 33.21777344 66.58666992 C33.2387423 72.82126456 33.2740666 79.05564025 33.31853104 85.29010963 C33.33267659 87.66426831 33.3414102 90.03846573 33.34458542 92.41266441 C33.34950507 95.73977865 33.37269219 99.06631427 33.39990234 102.39331055 C33.39689621 103.36971497 33.39389008 104.34611938 33.39079285 105.35211182 C33.47014147 111.8999403 34.21901532 117.72315319 38.2890625 123.12109375 C49.03020486 131.88291012 60.42092665 132.43004548 73.81640625 131.16796875 C85.37444663 129.14689065 94.39961555 122.60980491 101.62890625 113.54296875 C112.80281729 97.57167193 115.26702399 79.96194549 115.22709656 60.9429512 C115.22251488 58.5713569 115.23689164 56.20046894 115.25549316 53.82894897 C115.29791115 47.96036108 115.30959 42.09179814 115.32171631 36.2230835 C115.33323631 31.21520629 115.3566957 26.20766757 115.39640808 21.1999321 C115.40995275 18.8670802 115.40581887 16.53468829 115.40100098 14.20181274 C115.41033359 12.78118291 115.42050037 11.36055822 115.43164062 9.93994141 C115.43369507 8.70104156 115.43574951 7.46214172 115.43786621 6.18569946 C115.81640625 3.16796875 115.81640625 3.16796875 117.1108551 1.26997375 C120.11330663 -0.66999539 123.59919284 -0.27863799 127.0625 -0.265625 C127.87002213 -0.27086685 128.67754425 -0.2761087 129.50953674 -0.2815094 C131.21671398 -0.28793011 132.92393545 -0.28659193 134.63110352 -0.27807617 C137.2412005 -0.26957264 139.84910405 -0.29831338 142.45898438 -0.33007812 C144.11848893 -0.33169043 145.77799735 -0.33111204 147.4375 -0.328125 C148.60641029 -0.34497597 148.60641029 -0.34497597 149.79893494 -0.36216736 C152.95839933 -0.32160977 155.3022361 -0.14957751 158.01997375 1.52886963 C160.87689485 5.72590902 160.38645808 9.930762 160.36230469 14.89526367 C160.37264236 15.99066467 160.38298004 17.08606567 160.39363098 18.21466064 C160.42324828 21.85940036 160.42456497 25.50358625 160.42578125 29.1484375 C160.44079088 31.71251963 160.45752377 34.27659219 160.47589111 36.84065247 C160.51527 42.93990932 160.53679251 49.0389951 160.54986501 55.13835746 C160.5669109 62.57868081 160.61186531 70.01878261 160.65625 77.45898438 C160.72367241 89.11893453 160.75517078 100.77863124 160.77341461 112.43874931 C160.78944013 119.28420398 160.84594778 126.12710144 160.95684433 132.97167873 C161.01888533 136.85237862 161.06396483 140.73318039 161.10715485 144.61413002 C161.13177782 146.37118551 161.16520608 148.12814303 161.20809174 149.88484764 C161.26548029 152.25076117 161.29299819 154.61521463 161.31347656 156.98168945 C161.33806946 158.2849971 161.36266235 159.58830475 161.38800049 160.93110657 C160.81640625 164.16796875 160.81640625 164.16796875 158.48797607 166.58575439 C155.10639346 168.58846775 152.85843675 168.67011705 148.94140625 168.6640625 C147.6265625 168.66470703 146.31171875 168.66535156 144.95703125 168.66601562 C144.27705078 168.65562256 143.59707031 168.64522949 142.89648438 168.63452148 C140.8221028 168.60554831 138.75027863 168.61392607 136.67578125 168.62695312 C125.220746 168.55395535 125.220746 168.55395535 120.81640625 165.16796875 C118.05728466 158.6332071 117.72695057 151.15203738 116.81640625 144.16796875 C115.82640625 145.01359375 114.83640625 145.85921875 113.81640625 146.73046875 C113.16671875 147.28089844 112.51703125 147.83132813 111.84765625 148.3984375 C110.56774239 149.51343938 109.31304591 150.65874508 108.09765625 151.84375 C90.94751833 168.20407894 66.4999582 171.74400547 43.765625 171.44140625 C26.73931532 170.89278373 10.64182354 165.00786472 -1.765625 153.05859375 C-8.28838444 145.26078764 -12.29866708 136.03570332 -12.31730652 125.81016541 C-12.3215715 124.74888931 -12.32583649 123.68761322 -12.33023071 122.59417725 C-12.32977753 121.44024475 -12.32932434 120.28631226 -12.32885742 119.09741211 C-12.33221603 117.87415726 -12.33557465 116.6509024 -12.33903503 115.39057922 C-12.34689779 112.04358701 -12.35021197 108.69665684 -12.35085082 105.34965968 C-12.35156247 103.25790501 -12.3536989 101.16615682 -12.35634804 99.07440376 C-12.36559077 91.77542839 -12.36968401 84.47647126 -12.36889648 77.17749023 C-12.36829503 70.37518659 -12.3788628 63.57296207 -12.39464015 56.77067846 C-12.40771129 50.92682298 -12.41308061 45.08299339 -12.41244107 39.2391234 C-12.41218609 35.75030358 -12.41503807 32.2615542 -12.42561913 28.77274895 C-12.43708983 24.88484466 -12.43255591 20.99704933 -12.42651367 17.10913086 C-12.43213318 15.95317413 -12.43775269 14.79721741 -12.44354248 13.60623169 C-12.43934799 12.54777542 -12.4351535 11.48931915 -12.43083191 10.39878845 C-12.43137668 9.47980239 -12.43192144 8.56081633 -12.43248272 7.6139822 C-12.16571926 4.99230313 -11.59787958 3.38021936 -10.18359375 1.16796875 C-6.98520457 -0.43122584 -3.51306017 0.00495116 0 0 Z " fill="#3A62FF" transform="translate(842.18359375,263.83203125)"/>
<path d="M0 0 C0.83208984 -0.00524185 1.66417969 -0.0104837 2.52148438 -0.0158844 C4.27993657 -0.02230504 6.03843171 -0.02096702 7.796875 -0.01245117 C10.49035897 -0.00393673 13.18172541 -0.03270674 15.875 -0.06445312 C17.5833327 -0.0660651 19.29166916 -0.06548768 21 -0.0625 C21.80630859 -0.07373398 22.61261719 -0.08496796 23.44335938 -0.09654236 C29.0500315 -0.02649656 29.0500315 -0.02649656 31.21266937 2.1847887 C32.64659583 4.68967828 32.87590487 6.05478623 32.87854004 8.91618347 C32.88674271 9.80899017 32.89494537 10.70179688 32.90339661 11.62165833 C32.89724838 12.59366684 32.89110016 13.56567535 32.88476562 14.56713867 C32.8901384 15.59689819 32.89551117 16.62665771 32.90104675 17.68762207 C32.91083114 19.92419241 32.91376692 22.16080074 32.91069031 24.39739037 C32.90621537 27.94148745 32.9202057 31.48508436 32.93908691 35.02912903 C32.97590272 42.55977569 32.98957627 50.09037036 33 57.62109375 C33.01208737 66.33150564 33.03371936 75.04167483 33.08000183 83.75197792 C33.09354237 87.23564382 33.08940542 90.71900073 33.08459473 94.2026825 C33.09394059 96.35281767 33.10411073 98.50294946 33.11523438 100.65307617 C33.10908615 101.61496353 33.10293793 102.57685089 33.09660339 103.56788635 C33.16492408 111.12157874 34.51831284 117.34449318 38.625 123.74609375 C47.13557139 131.70162788 57.64506632 131.88678386 68.65625 131.703125 C81.44655955 131.20071927 91.50036619 124.88950546 100.25 115.80859375 C110.03585386 103.83503698 114.65367332 88.11387199 114.6418457 72.83935547 C114.64705734 71.73577194 114.64705734 71.73577194 114.65237427 70.6098938 C114.65969148 69.02213155 114.6650582 67.43435934 114.66866493 65.84658432 C114.67586816 63.33295258 114.69156011 60.81951179 114.71000671 58.30593872 C114.76231809 51.16280612 114.8104987 44.01978525 114.82592773 36.87646484 C114.83599992 32.4991825 114.8652931 28.12239216 114.90724754 23.74530411 C114.91956178 22.07957806 114.92467802 20.41378261 114.92244911 18.74801254 C114.9201 16.42115238 114.94222617 14.09571144 114.9699707 11.76904297 C114.96006859 10.73876984 114.96006859 10.73876984 114.94996643 9.68768311 C115.01417944 6.41048545 115.32547321 4.66952218 117.29544067 2.00648499 C120.61973699 -0.36530718 123.94748623 -0.11917521 127.87890625 -0.0625 C128.6873851 -0.06395523 129.49586395 -0.06541046 130.32884216 -0.06690979 C132.03428764 -0.06525285 133.73974838 -0.05371436 135.44506836 -0.03295898 C138.05712227 -0.00396594 140.66715077 -0.01236063 143.27929688 -0.02539062 C144.93750987 -0.01915407 146.59571646 -0.01076377 148.25390625 0 C149.42585289 -0.00440346 149.42585289 -0.00440346 150.62147522 -0.00889587 C155.93823057 0.08378668 155.93823057 0.08378668 158.2035675 1.49438477 C160.17600584 4.44476602 159.93092902 7.43345284 159.91650391 10.86499023 C159.92510343 11.62557393 159.93370295 12.38615763 159.94256306 13.16978931 C159.96786604 15.71484907 159.97207727 18.25951247 159.9765625 20.8046875 C159.99071666 22.61180717 160.00625411 24.41891647 160.02308655 26.22601318 C160.06500671 31.09724446 160.08927082 35.96841845 160.1102562 40.8397789 C160.13480263 45.88650682 160.17458307 50.93310699 160.21411133 55.97973633 C160.22995444 58.01707443 160.24577775 60.05441269 160.26158142 62.0917511 C160.26945112 63.10314966 160.27732082 64.11454823 160.285429 65.15659523 C160.30868538 68.24262755 160.32986116 71.32866846 160.3506012 74.41471863 C160.44040148 87.36555201 160.60620893 100.31286176 160.84765625 113.26171875 C160.8766094 114.86072135 160.90548029 116.45972544 160.93426514 118.05873108 C161.04282885 124.0375903 161.15159652 130.01639887 161.28131104 135.99484253 C161.34120068 138.75716913 161.39599911 141.51949235 161.44444275 144.28204346 C161.48775823 146.74123108 161.53886815 149.20030011 161.59962463 151.65911865 C161.76540042 162.16444068 161.76540042 162.16444068 159.5 166.43359375 C155.01494097 170.00864081 148.07653586 168.76650554 142.65551758 168.74926758 C140.57254637 168.74610898 138.4909988 168.76957894 136.40820312 168.79492188 C135.08884766 168.79556641 133.76949219 168.79621094 132.41015625 168.796875 C131.20496338 168.79985596 129.99977051 168.80283691 128.75805664 168.8059082 C125.21736551 168.40129569 123.33301292 167.55468964 120.5 165.43359375 C119.609375 163.62890625 119.609375 163.62890625 119.25 161.55859375 C119.11335938 160.77871094 118.97671875 159.99882812 118.8359375 159.1953125 C118.19847279 153.95475956 117.8094673 148.70268166 117.5 143.43359375 C116.5409375 144.42359375 116.5409375 144.42359375 115.5625 145.43359375 C114.54498829 146.43697335 113.52366174 147.43648927 112.5 148.43359375 C111.8915625 149.03816406 111.283125 149.64273438 110.65625 150.265625 C99.90115959 160.43881686 87.65267298 165.8148461 73.5 169.43359375 C72.56414062 169.67980469 71.62828125 169.92601562 70.6640625 170.1796875 C54.62094392 173.59061447 36.98946065 172.62701197 21.5 167.43359375 C20.59636719 167.16804687 19.69273438 166.9025 18.76171875 166.62890625 C7.40243306 162.8243608 -2.91861387 153.97434405 -8.5 143.43359375 C-12.20772881 134.86984699 -12.65009689 126.48106326 -12.6328125 117.26171875 C-12.63426773 116.13856262 -12.63572296 115.01540649 -12.63722229 113.85821533 C-12.63948836 110.1333087 -12.63313025 106.40849151 -12.625 102.68359375 C-12.62311676 101.40701904 -12.62123352 100.13044434 -12.61929321 98.81518555 C-12.60252057 89.02117445 -12.55755625 79.2274433 -12.5 69.43359375 C-12.49574257 68.68351044 -12.49148514 67.93342712 -12.48709869 67.16061401 C-12.43015609 57.22810684 -12.34921119 47.29615914 -12.23553467 37.36413574 C-12.20208308 34.41078648 -12.17530686 31.45749041 -12.15411377 28.50402832 C-12.1237602 24.36564614 -12.06905629 20.22794037 -12.01171875 16.08984375 C-12.00531876 14.84881897 -11.99891876 13.60779419 -11.99232483 12.3291626 C-11.97254074 11.19637878 -11.95275665 10.06359497 -11.93237305 8.89648438 C-11.92126999 7.90861938 -11.91016693 6.92075439 -11.89872742 5.9029541 C-11.5 3.43359375 -11.5 3.43359375 -10.20930481 1.61741638 C-7.18629294 -0.47624757 -3.55263353 -0.01293456 0 0 Z " fill="#3A62FF" transform="translate(1252.5,263.56640625)"/>
<path d="M0 0 C0.90136185 -0.02244278 1.80272369 -0.04488556 2.73139954 -0.06800842 C3.7032872 -0.07964523 4.67517487 -0.09128204 5.67651367 -0.10327148 C6.67905685 -0.1170433 7.68160004 -0.13081512 8.71452332 -0.14500427 C10.83696977 -0.16828501 12.95948947 -0.18554597 15.08203125 -0.19726562 C18.32257106 -0.22418323 21.5598435 -0.29908112 24.79956055 -0.37475586 C26.86268964 -0.39141411 28.92584452 -0.40518021 30.98901367 -0.41577148 C32.43773613 -0.46055382 32.43773613 -0.46055382 33.91572571 -0.50624084 C40.46494747 -0.46362526 40.46494747 -0.46362526 43.38365173 1.72946167 C44.9680334 3.51685607 46.26197623 5.31703181 47.53198242 7.33813477 C48.20479248 8.36068359 48.87760254 9.38323242 49.57080078 10.43676758 C50.16513916 11.46125 50.75947754 12.48573242 51.37182617 13.54125977 C51.70187149 14.10455994 52.03191681 14.66786011 52.3719635 15.24822998 C53.41116197 17.02439781 54.44079869 18.80586062 55.46948242 20.58813477 C59.38690916 27.32897402 63.30868571 34.06687158 67.41088867 40.69750977 C67.96462158 41.594375 68.51835449 42.49124023 69.08886719 43.4152832 C69.56509521 44.04982422 70.04132324 44.68436523 70.53198242 45.33813477 C71.19198242 45.33813477 71.85198242 45.33813477 72.53198242 45.33813477 C78.57846924 32.10028425 78.57846924 32.10028425 84.28198242 18.71313477 C90.68966141 3.13584619 90.68966141 3.13584619 94.53198242 0.33813477 C97.22584729 0.05205232 99.68358344 -0.05862082 102.37573242 -0.02514648 C103.14123413 -0.02564499 103.90673584 -0.02614349 104.69543457 -0.0266571 C106.31268919 -0.0243183 107.92994756 -0.01460111 109.54711914 0.00195312 C112.02287334 0.02554795 114.49755059 0.02251271 116.97338867 0.01586914 C118.54500968 0.02144603 120.11662615 0.02855598 121.68823242 0.03735352 C122.42891968 0.03644211 123.16960693 0.0355307 123.93273926 0.03459167 C127.66934048 0.08614997 129.34369378 0.21260901 132.53198242 2.33813477 C133.62026671 8.96210133 130.8299436 13.3909816 127.59448242 19.02563477 C127.06669189 19.96898682 126.53890137 20.91233887 125.99511719 21.88427734 C121.48436595 29.86285021 116.73726956 37.69911452 111.96948242 45.52563477 C111.42753235 46.41576767 111.42753235 46.41576767 110.87463379 47.32388306 C104.70662551 57.44941451 104.70662551 57.44941451 101.66772461 62.33569336 C100.04225526 64.95115485 98.4409778 67.57992683 96.84448242 70.21313477 C96.36873779 70.96103271 95.89299316 71.70893066 95.40283203 72.47949219 C94.98783447 73.17276611 94.57283691 73.86604004 94.14526367 74.58032227 C93.60059448 75.45986572 93.60059448 75.45986572 93.04492188 76.35717773 C92.01937304 80.31781706 94.18943413 83.708068 96.05322266 87.13623047 C96.64304932 88.0858667 97.23287598 89.03550293 97.84057617 90.01391602 C98.49960938 91.08053467 99.15864258 92.14715332 99.83764648 93.24609375 C100.5480048 94.38109955 101.25862233 95.51594316 101.96948242 96.65063477 C102.69997738 97.82627892 103.43011776 99.00214346 104.15991211 100.17822266 C108.97747316 107.92527322 113.88735432 115.61021877 118.87573242 123.24829102 C122.41557244 128.67666768 125.86920371 134.15978111 129.30957031 139.65161133 C131.43076775 143.03458273 133.55390952 146.40597352 135.80932617 149.70141602 C139.39840056 155.00796158 141.65038577 158.82595055 141.53198242 165.33813477 C138.51316453 168.35695266 135.53433021 168.45912939 131.39355469 168.49926758 C130.58914444 168.50887512 129.78473419 168.51848267 128.95594788 168.52838135 C128.09545334 168.53263123 127.2349588 168.5368811 126.34838867 168.54125977 C125.45586899 168.54695984 124.5633493 168.55265991 123.64378357 168.55853271 C121.75846537 168.56796595 119.87313081 168.57451003 117.98779297 168.57836914 C115.10835022 168.58808796 112.22961755 168.6191323 109.3503418 168.65063477 C107.51636165 168.65716406 105.68237641 168.66241482 103.84838867 168.66625977 C102.98991837 168.67860657 102.13144806 168.69095337 101.2469635 168.70367432 C96.52389161 168.68612223 93.31628454 168.47492605 89.53198242 165.33813477 C87.90136719 163.34301758 87.90136719 163.34301758 86.47338867 161.04125977 C85.92908203 160.1751709 85.38477539 159.30908203 84.82397461 158.41674805 C84.25324219 157.48330566 83.68250977 156.54986328 83.09448242 155.58813477 C82.49410156 154.62762207 81.8937207 153.66710937 81.27514648 152.67749023 C77.99167496 147.40432025 74.77520234 142.09181173 71.57495117 136.76782227 C70.93936279 135.71304688 70.30377441 134.65827148 69.64892578 133.5715332 C68.41653474 131.51964322 67.19191002 129.46306613 65.97558594 127.40161133 C65.42185303 126.47574219 64.86812012 125.54987305 64.29760742 124.59594727 C63.81066406 123.77239746 63.3237207 122.94884766 62.82202148 122.1003418 C62.39630859 121.51881348 61.9705957 120.93728516 61.53198242 120.33813477 C60.87198242 120.33813477 60.21198242 120.33813477 59.53198242 120.33813477 C59.08097168 121.16498779 59.08097168 121.16498779 58.62084961 122.00854492 C57.98131348 123.18102783 57.98131348 123.18102783 57.32885742 124.37719727 C56.84860107 125.25786865 56.36834473 126.13854004 55.87353516 127.04589844 C54.80341703 129.00737129 53.73260463 130.96846551 52.66113281 132.92919922 C49.81406449 138.14154988 46.97888947 143.35970274 44.16870117 148.59204102 C43.63212891 149.58703613 43.09555664 150.58203125 42.54272461 151.60717773 C41.50916896 153.52448442 40.47973905 155.44402199 39.45483398 157.3659668 C38.98400391 158.23721191 38.51317383 159.10845703 38.02807617 160.00610352 C37.6174292 160.77204834 37.20678223 161.53799316 36.78369141 162.32714844 C34.7213838 165.64043647 33.2707673 167.09187314 29.53198242 168.33813477 C25.29558514 168.5433164 21.05887397 168.52393545 16.81787109 168.5234375 C14.73733827 168.52561607 12.65734281 168.54376159 10.5769043 168.56274414 C9.24292172 168.56568002 7.90893665 168.56766351 6.57495117 168.56860352 C4.76546997 168.57476685 4.76546997 168.57476685 2.91943359 168.58105469 C-0.62331266 168.32699829 -4.82662211 167.97953023 -7.46801758 165.33813477 C-7.40578073 157.63854813 -4.06210705 152.75876353 0.09448242 146.46313477 C1.46927182 144.32321059 2.84293131 142.18256017 4.21557617 140.04125977 C4.9282666 138.9384668 5.64095703 137.83567383 6.37524414 136.69946289 C11.91738128 128.06190979 17.23790534 119.28336276 22.58325195 110.52319336 C23.88850042 108.38985942 25.19943413 106.2599941 26.51586914 104.13354492 C28.38934534 101.10586099 30.24394164 98.06737512 32.09448242 95.02563477 C32.66118652 94.11861816 33.22789063 93.21160156 33.81176758 92.27709961 C34.31885254 91.4348584 34.8259375 90.59261719 35.34838867 89.72485352 C35.79641846 88.99484131 36.24444824 88.2648291 36.70605469 87.51269531 C37.78118782 84.6820093 37.42920382 83.20462622 36.53198242 80.33813477 C35.54740249 78.2183801 35.54740249 78.2183801 34.26635742 76.17797852 C33.79544678 75.39519531 33.32453613 74.61241211 32.83935547 73.8059082 C32.32542236 72.97091797 31.81148926 72.13592773 31.28198242 71.27563477 C30.74549072 70.39294922 30.20899902 69.51026367 29.65625 68.60083008 C25.4357918 61.70163916 21.05422771 54.91321048 16.62109375 48.14941406 C12.16374956 41.34133799 7.79573887 34.48022528 3.46948242 27.58813477 C2.8380835 26.58814453 2.20668457 25.5881543 1.55615234 24.55786133 C-8.49426736 8.49563343 -8.49426736 8.49563343 -7.46801758 2.33813477 C-4.34986236 0.25936462 -3.5591278 0.07488211 0 0 Z " fill="#3A62FF" transform="translate(1442.468017578125,263.661865234375)"/>
<path d="M0 0 C1.21641174 -0.01418472 1.21641174 -0.01418472 2.45739746 -0.02865601 C3.76529236 -0.01954697 3.76529236 -0.01954697 5.09960938 -0.01025391 C6.44762634 -0.01455917 6.44762634 -0.01455917 7.82287598 -0.01895142 C9.72258128 -0.02099256 11.62230758 -0.01545919 13.52197266 -0.00292969 C16.43244347 0.01312339 19.34152558 -0.00277653 22.25195312 -0.02197266 C24.09700828 -0.01999023 25.94206257 -0.01614658 27.78710938 -0.01025391 C28.65903931 -0.0163266 29.53096924 -0.02239929 30.42932129 -0.02865601 C31.24026245 -0.01919952 32.05120361 -0.00974304 32.88671875 0 C33.5993689 0.00238678 34.31201904 0.00477356 35.04626465 0.00723267 C37.52836315 0.50565676 38.39344041 1.41876893 39.94335938 3.38818359 C40.86073815 6.14031991 41.06930889 7.75158397 41.07199383 10.58523369 C41.07521827 11.44503865 41.07844272 12.30484361 41.08176488 13.19070327 C41.07944197 14.60823951 41.07944197 14.60823951 41.07707214 16.05441284 C41.0793377 17.05800217 41.08160326 18.06159149 41.08393747 19.09559262 C41.09029129 22.47422173 41.08944721 25.85281087 41.08862305 29.23144531 C41.09161367 31.64739026 41.09501598 34.06333473 41.09880066 36.47927856 C41.10673408 42.37008073 41.10985574 48.26087345 41.11041304 54.15167986 C41.11088796 58.93942015 41.11294151 63.72715714 41.11611366 68.51489639 C41.12492176 82.0848773 41.12953281 95.65485029 41.12878319 109.22483407 C41.12874323 109.95662515 41.12870328 110.68841624 41.12866211 111.44238281 C41.12862123 112.17506599 41.12858035 112.90774917 41.12853823 113.66263486 C41.12813174 125.53808904 41.13770164 137.41351151 41.15180048 149.28895651 C41.16615821 161.47852166 41.17307099 173.66807133 41.1722067 185.85764515 C41.17187452 192.70278774 41.17463093 199.5478971 41.18538475 206.39303207 C41.19543182 212.82962744 41.19516055 219.2661707 41.18786812 225.70277023 C41.18681944 228.06790774 41.18920183 230.43304957 41.19522858 232.79817963 C41.2029115 236.02153231 41.19832817 239.2446399 41.19059753 242.46798706 C41.1957411 243.40854977 41.20088466 244.34911249 41.20618409 245.3181771 C41.18263533 249.74763156 41.14420855 253.40961228 38.94335938 257.38818359 C35.41697396 260.23806998 30.91959172 259.67634237 26.59960938 259.65380859 C25.39044861 259.65667877 25.39044861 259.65667877 24.15686035 259.65960693 C22.4556446 259.66096553 20.75441838 259.65729179 19.05322266 259.64892578 C16.45256209 259.63822147 13.85259226 259.64883187 11.25195312 259.66162109 C9.59700369 259.66029944 7.94205468 259.65773693 6.28710938 259.65380859 C5.12290466 259.65988129 5.12290466 259.65988129 3.93518066 259.66607666 C-2.97288926 259.60621769 -2.97288926 259.60621769 -6.05664062 257.38818359 C-7.20970781 255.08204923 -7.18387783 253.78043372 -7.18806839 251.21489048 C-7.19190953 250.33494279 -7.19575068 249.45499511 -7.19970822 248.54838234 C-7.19884174 247.57573541 -7.19797526 246.60308849 -7.19708252 245.60096741 C-7.20005364 244.57232006 -7.20302476 243.54367271 -7.20608592 242.48385423 C-7.21480278 239.01453731 -7.21628367 235.54525476 -7.21777344 232.07592773 C-7.22239943 229.59777248 -7.22742379 227.11961794 -7.2328186 224.64146423 C-7.24596411 217.89366123 -7.2524279 211.14587176 -7.25682926 204.39805913 C-7.25958971 200.18716445 -7.26382666 195.97627208 -7.26833344 191.76537895 C-7.28052658 180.11331991 -7.29082629 168.46126271 -7.29420853 156.80919743 C-7.29442809 156.06318432 -7.29464766 155.31717121 -7.29487388 154.54855165 C-7.29509216 153.80072733 -7.29531043 153.05290301 -7.29553533 152.28241736 C-7.2959788 150.7669729 -7.29642536 149.25152844 -7.296875 147.73608398 C-7.29709643 146.984367 -7.29731786 146.23265001 -7.297546 145.45815372 C-7.30149611 133.2708776 -7.3189564 121.08366119 -7.34223452 108.89640815 C-7.36592487 96.39274074 -7.37840929 83.88910333 -7.37957644 71.38541311 C-7.38049444 64.3614476 -7.38627791 57.33755992 -7.40439606 50.3136158 C-7.42136862 43.71040592 -7.42306707 37.10731807 -7.41425705 30.50408363 C-7.41348288 28.07521418 -7.41787889 25.64633699 -7.4277153 23.21748734 C-7.44032003 19.91227314 -7.43462071 16.60759292 -7.4241333 13.30238342 C-7.43218971 12.33196722 -7.44024611 11.36155101 -7.44854665 10.36172825 C-7.4419568 9.47917282 -7.43536696 8.59661739 -7.42857742 7.68731785 C-7.42917451 6.92402497 -7.4297716 6.16073209 -7.43038678 5.37430912 C-6.63841988 1.16571551 -3.97722358 0.01332036 0 0 Z " fill="#3A62FF" transform="translate(1937.056640625,172.61181640625)"/>
<path d="M0 0 C6.13709753 3.86721214 10.96287466 8.07537582 12.99609375 15.2578125 C14.00625678 22.89131248 13.38310213 29.79536389 8.99609375 36.2578125 C3.46576603 42.81613055 -3.74401801 46.26346202 -12.16796875 47.6015625 C-19.79968934 47.96642564 -27.12060309 44.93771274 -33.00390625 40.2578125 C-38.63839254 34.45116135 -40.86227129 29.26662556 -41.00390625 21.2578125 C-40.41145684 13.4901425 -37.05877214 7.84796342 -31.265625 2.71875 C-22.29959895 -4.08032075 -10.044076 -5.27083621 0 0 Z " fill="#3A62FF" transform="translate(1641.00390625,384.7421875)"/>
<path d="M0 0 C2.31 0 4.62 0 7 0 C7.76214036 10.35694312 8.13430792 20.6135207 8 31 C5.03 31 2.06 31 -1 31 C-1.18615302 20.6374817 -0.60565429 10.33938394 0 0 Z " fill="#4067FE" transform="translate(237,153)"/>
<path d="M0 0 C2.31 0 4.62 0 7 0 C8.02472362 10.35702803 8.1050173 20.60328698 8 31 C5.03 31 2.06 31 -1 31 C-0.67 20.77 -0.34 10.54 0 0 Z " fill="#4067FE" transform="translate(378,153)"/>
<path d="M0 0 C0.99 0.33 1.98 0.66 3 1 C2.67 3.97 2.34 6.94 2 10 C1.67 10 1.34 10 1 10 C0.67 6.7 0.34 3.4 0 0 Z " fill="#6684FA" transform="translate(311,196)"/>
</svg>
